# xmcd CD database file
#
# Track frame offsets:
#	150
#	12740
#	29936
#	44143
#	61210
#	75207
#	91941
#	108048
#	124183
#	152934
#	167645
#	183158
#	203067
#	225772
#	242989
#	252225
#	269365
#	281921
#	299279
#	311198
#	325453
#
# Disc length: 4805 seconds
#
# Revision: 5
# Processed by: cddbd v1.5.1PL0 Copyright (c) Steve Scherf et al.
# Submitted via: CdAid (MTCDDB.DLL V2003.12.21)
#
DISCID=3012c315
DTITLE=Banda Calypso - Audio do primeiro DVD
DYEAR=2004
DGENRE=Latin
TTITLE0=Temporal
TTITLE1=Chamo por voce
TTITLE2=Me telefona
TTITLE3=Principe encantado
TTITLE4=Dancando calypso
TTITLE5=Deusa da paixao
TTITLE6=Solidao
TTITLE7=Nao Faz Sentido
TTITLE8=Amor da Estrelas - Anjo do Prazer - Estrela Dourada 
TTITLE9=Mil e Uma Noite
TTITLE10=Desfaz as malas
TTITLE11=Maridos e Esposas
TTITLE12=Como uma virgem
TTITLE13=Formula magica
TTITLE14=Choro por voce
TTITLE15=Esperando Por Voce
TTITLE16=Cumbia do amor
TTITLE17=Dudu
TTITLE18=Cheiro do Para
TTITLE19=Sem medo de falar
TTITLE20=Odalisca - Gringio Lindo - Vendaval
EXTD=ID3G:  86 YEAR: 2004 ID3G:  86
EXTT0=
EXTT1=
EXTT2=
EXTT3=
EXTT4=
EXTT5=
EXTT6=
EXTT7=
EXTT8=
EXTT9=
EXTT10=
EXTT11=
EXTT12=
EXTT13=
EXTT14=
EXTT15=
EXTT16=
EXTT17=
EXTT18=
EXTT19=
EXTT20=
PLAYORDER=
